<svg width="42" height="42" viewBox="0 0 42 42" fill="none" xmlns="http://www.w3.org/2000/svg">
<rect width="42" height="42" rx="21" fill="#0077FF"/>
<path d="M22.0316 28.35C14.1393 28.35 9.63757 22.832 9.45 13.65H13.4034C13.5333 20.3894 16.4478 23.244 18.7564 23.8326V13.65H22.4789V19.4623C24.7586 19.2122 27.1537 16.5635 27.9617 13.65H31.6843C31.3798 15.1611 30.7729 16.5918 29.9015 17.8527C29.0301 19.1135 27.9129 20.1775 26.6199 20.978C28.0632 21.7094 29.338 22.7446 30.3602 24.0154C31.3824 25.2861 32.1288 26.7635 32.55 28.35H28.4523C28.0742 26.972 27.3057 25.7385 26.2431 24.804C25.1805 23.8695 23.871 23.2757 22.4789 23.0969V28.35H22.0316Z" fill="white"/>
</svg>
